<?xml version="1.0" standalone="no"?><!DOCTYPE svg PUBLIC "-//W3C//DTD SVG 1.1//EN" "http://www.w3.org/Graphics/SVG/1.1/DTD/svg11.dtd"><svg t="1602328195990" class="icon" viewBox="0 0 1024 1024" version="1.1" xmlns="http://www.w3.org/2000/svg" p-id="1167" xmlns:xlink="http://www.w3.org/1999/xlink" width="200" height="200"><defs><style type="text/css"></style></defs><path d="M529.969548 382.705135h173.022968l-173.022968-170.941935v170.941935m0 0zM737.590503 75.009652v170.935329h173.016362l-173.016362-170.935329m0 0z" p-id="1168"></path><path d="M702.98591 245.951587V75.009652h-346.045936V177.581419h187.352361l10.134297 10.015381 173.022968 170.941935 10.134297 10.015381V827.154168h173.016361v-547.014194h-207.620955v-34.188387m0.006607 0z" p-id="1169"></path><path d="M495.358348 416.886916V211.7632H149.319019v752.131303h553.666891V416.886916h-207.627562z m-261.62209 7.022658h180.6336c5.41729 0 9.817187 6.910348 9.817187 15.432671s-4.39329 15.432671-9.817187 15.432671h-180.6336c-5.423897 0-9.817187-6.910348-9.817187-15.432671 0.006606-8.522323 4.399897-15.432671 9.817187-15.432671z m4.39329 164.797936h261.470142c7.848465 0 14.203871 6.910348 14.203871 15.432671s-6.355406 15.432671-14.203871 15.432671h-261.470142c-7.848465 0-14.210477-6.910348-14.210477-15.432671 0.006606-8.522323 6.368619-15.432671 14.210477-15.432671z m351.113084 195.663277h-346.488567c-10.398555 0-18.828387-6.910348-18.828388-15.432671s8.429832-15.432671 18.828388-15.432671h346.488567c10.398555 0 18.828387 6.910348 18.828387 15.432671-0.006606 8.522323-8.429832 15.432671-18.828387 15.432671z" p-id="1170"></path></svg>